<?xml version="1.0" encoding="utf-8"?>
<svg width="69px" height="64px" viewBox="0 0 69 64" version="1.1" xmlns:xlink="http://www.w3.org/1999/xlink" xmlns="http://www.w3.org/2000/svg">
  <desc>Created with Lunacy</desc>
  <g id="Group-24">
    <path d="M22.542 17.2268L21.23 13.6877C17.3109 5.90615 8.16043 2.32429 0 5.37696C3.81423 1.31855 9.36999 -0.622498 14.8821 0.176857C20.3945 0.977072 25.1692 4.41718 27.6725 9.39243L28.9845 12.9318C31.0774 21.3473 26.5306 29.9951 18.4114 33.0419C22.3867 28.8149 23.9427 22.8582 22.542 17.2268" transform="translate(58.56543 27.33887)" id="Fill-1" fill="#F3F3F3" stroke="none" />
    <path d="M6.94967 17.2268L8.26253 13.6877C12.1816 5.90615 21.3312 2.32429 29.4925 5.37696C25.6774 1.31855 20.1223 -0.622498 14.6101 0.176857C9.09797 0.977072 4.32309 4.41718 1.82 9.39243L0.507146 12.9318C-1.58488 21.3473 2.9617 29.9951 11.0811 33.0419C7.1058 28.8149 5.54962 22.8582 6.94967 17.2268" transform="translate(2.151855 27.33887)" id="Fill-3" fill="#D4E1F4" stroke="none" />
    <path d="M6.94967 17.2268L8.26253 13.6877C12.1816 5.90615 21.3312 2.32429 29.4925 5.37696C25.6774 1.31855 20.1223 -0.622498 14.6101 0.176857C9.09797 0.977072 4.32309 4.41718 1.82 9.39243L0.507146 12.9318C-1.58488 21.3473 2.9617 29.9951 11.0811 33.0419C7.1058 28.8149 5.54962 22.8582 6.94967 17.2268" transform="translate(2.151855 27.33887)" id="Fill-5" fill="#F3F3F3" stroke="none" />
    <path d="M0.0294228 1.46964L0 7.73262L0.0152483 7.73262C0.118336 5.01648 0.871731 2.36478 2.2138 0C1.44881 0.432752 0.719034 0.924349 0.0294228 1.46964" transform="translate(53.93066 35.99805)" id="Fill-7" fill="#D4E1F4" stroke="none" />
    <path d="M21.4531 7.83656C19.913 3.15898 15.5451 0 10.6216 0L10.6133 0C5.92494 0.00085906 1.71468 2.87055 0 7.2335C1.32789 6.70991 2.74319 6.44145 4.17074 6.44231L4.17911 6.44231C9.1026 6.44231 13.4705 9.6015 15.0108 14.2791L19.1573 25.4587C24.4362 26.4133 28.9594 29.7922 31.3727 34.583L21.4531 7.83656Z" transform="translate(54.86523 2.148438)" id="Fill-9" fill="#F3F3F3" stroke="none" />
    <path d="M16.3612 14.2791C17.9013 9.6015 22.2694 6.44231 27.1933 6.44231L27.2019 6.44231C28.6295 6.44145 30.0448 6.70991 31.3727 7.2335C29.6573 2.87055 25.4479 0.00085906 20.7594 0L20.751 0C15.8269 0 11.4588 3.15898 9.91871 7.83656L0 34.583C2.41267 29.7922 6.93648 26.4133 12.2156 25.4587L16.3612 14.2791Z" transform="translate(3.972168 2.148438)" id="Fill-11" fill="#F3F3F3" stroke="none" />
    <path d="M0 0C1.44365 2.54174 2.20714 5.41401 2.21466 8.33739L2.18201 1.4705C1.49326 0.925208 0.764349 0.432752 0 0" transform="translate(34.06348 35.99707)" id="Fill-13" fill="#D4E1F4" stroke="none" />
    <path d="M11.8617 9.10234C10.4567 9.10234 9.07659 8.72736 7.86618 8.01456L1.05705 3.99866C0.035413 3.39646 -0.304345 2.07952 0.297856 1.05767C0.900057 0.0358186 2.21721 -0.30394 3.23906 0.298476L10.0463 4.31415C11.1637 4.97112 12.5487 4.97262 13.667 4.31931L20.5455 0.294181C21.5691 -0.304799 22.8843 0.0401139 23.4833 1.06347C24.0822 2.0879 23.7382 3.40312 22.715 4.0021L15.8361 8.02615C14.6298 8.73144 13.2583 9.10234 11.8617 9.10234" transform="translate(33.25391 47.9541)" id="Fill-15" fill="#D0021B" stroke="none" />
    <path d="M0 11.1008C0 17.231 4.97031 22.2016 11.1008 22.2016C17.231 22.2016 22.2013 17.231 22.2013 11.1008C22.2013 4.97052 17.231 0 11.1008 0C4.97031 0 0 4.97052 0 11.1008ZM4.29509 11.1008C4.29509 7.3426 7.3426 4.29509 11.1008 4.29509C14.8596 4.29509 17.9065 7.3426 17.9065 11.1008C17.9065 14.8596 14.8596 17.9065 11.1008 17.9065C7.3426 17.9065 4.29509 14.8596 4.29509 11.1008Z" transform="translate(8.115723 33.2998)" id="Fill-17" fill="#D0021B" fill-rule="evenodd" stroke="none" />
    <path d="M0 11.1008C0 17.231 4.96966 22.2016 11.1008 22.2016C17.2312 22.2016 22.2009 17.231 22.2009 11.1008C22.2009 4.97052 17.2312 0 11.1008 0C4.96966 0 0 4.97052 0 11.1008ZM4.2953 11.1008C4.2953 7.3426 7.34196 4.29509 11.1008 4.29509C14.859 4.29509 17.9058 7.3426 17.9058 11.1008C17.9058 14.8596 14.859 17.9065 11.1008 17.9065C7.34196 17.9065 4.2953 14.8596 4.2953 11.1008Z" transform="translate(59.63867 33.2998)" id="Fill-19" fill="#D0021B" fill-rule="evenodd" stroke="none" />
    <path d="M89.6268 39.7267L89.6309 39.7417C89.6318 39.746 89.6335 39.7501 89.6343 39.7544C91.4253 46.9578 88.9069 54.5478 83.165 59.2512C77.4222 63.955 69.4849 64.9287 62.7754 61.7536C56.0663 58.5785 51.7872 51.8222 51.7831 44.4002C51.7831 44.2223 51.7863 44.0561 51.7914 43.8942C51.7872 43.8364 51.7831 43.7758 51.7831 43.7164L51.8065 38.8929L38.3998 38.8929L38.424 44.2374C38.4258 44.2659 38.4258 44.2977 38.4258 44.3254L38.4258 44.5428C38.4258 44.5722 38.4215 44.5997 38.4215 44.6282C38.3401 52.0303 34.0132 58.728 27.299 61.8434C20.5839 64.9596 12.6758 63.9406 6.97083 59.2235C1.26581 54.5074 -1.22224 46.9318 0.576199 39.7509L0.578776 39.7417C0.579635 39.7376 0.581354 39.7342 0.581998 39.7301C0.91338 38.4031 1.38737 37.1153 1.99558 35.8907L11.864 9.28349C13.9662 2.98615 20.3198 -0.862653 26.8746 0.190126C33.4295 1.2429 38.2572 6.88758 38.2823 13.5264L38.2999 17.4179L51.9089 17.4179L51.9274 13.5264C51.9424 6.88264 56.7699 1.22959 63.3291 0.173374C69.8882 -0.881982 76.2459 2.9709 78.3456 9.27426L88.2141 35.8864C88.8215 37.1119 89.2954 38.3996 89.6268 39.7267ZM15.9308 10.6567C15.9225 10.6818 15.9141 10.707 15.904 10.7323L9.58882 27.7612C17.7486 23.0568 28.1145 24.9568 34.0746 32.2492L33.9872 13.5105C33.9638 8.9723 30.6545 5.11941 26.1717 4.41047C21.6887 3.70175 17.3526 6.34658 15.9308 10.6567ZM65.4866 4.29643C69.4849 4.29042 73.0332 6.85751 74.2789 10.6567C74.2872 10.6818 74.2956 10.707 74.3048 10.7323L80.6198 27.7612C72.4669 23.0366 62.0884 24.9326 56.1334 32.2357L56.2223 13.5114C56.2566 8.41692 60.3924 4.30309 65.4866 4.29643ZM38.3201 21.713L38.3796 34.5979L51.8267 34.5979L51.8887 21.713L38.3201 21.713ZM70.993 59.315C62.7621 59.3216 56.0848 52.6553 56.0782 44.4253L56.0782 44.401C56.0782 44.1938 56.0822 44.0084 56.0906 43.8347L56.0906 43.8128C56.3574 37.0365 61.1617 31.2926 67.7844 29.8339C74.4071 28.3744 81.181 31.5671 84.2706 37.6044L85.4902 40.8928C86.5632 45.337 85.5396 50.0289 82.7118 53.6215C79.884 57.2154 75.5649 59.3132 70.993 59.315ZM19.2167 59.315C14.644 59.3132 10.3246 57.2154 7.49765 53.6224C4.66984 50.0289 3.64562 45.3378 4.71945 40.8928L5.9391 37.6044C8.48407 32.6098 13.6215 29.4708 19.2275 29.4867C27.419 29.4867 34.1526 36.1506 34.1526 44.343L34.1526 44.4302C34.1491 46.1097 33.8607 47.7756 33.297 49.3569C31.1847 55.322 25.545 59.3107 19.2167 59.315Z" id="Fill-21" fill="#4B505A" fill-rule="evenodd" stroke="none" />
  </g>
</svg>