<svg xmlns="http://www.w3.org/2000/svg" width="151" height="56" viewBox="0 0 151 56">
    <path fill="#D0021B" fill-rule="nonzero" d="M.085 12.289V.622H45.1V12.29H28.8v42.778H16.383V12.289H.085zm46.41 26.833V28.233h20.49v10.89h-20.49zm29.26-8.01L79.478.621h26.853V12.29H89.724l-1.087 6.922H90.5c4.863 0 8.912 1.608 12.146 4.822 3.233 3.215 4.85 7.519 4.85 12.911 0 5.912-1.862 10.565-5.588 13.962C98.183 54.302 93.45 56 87.706 56c-3 0-6.04-.661-9.12-1.983-3.078-1.323-5.393-3.098-6.945-5.328l6.519-8.945c1.087 1.297 2.561 2.386 4.424 3.267 1.862.882 3.673 1.322 5.432 1.322 2.07 0 3.764-.635 5.084-1.905 1.32-1.27 1.979-2.917 1.979-4.94 0-2.28-.88-4.147-2.639-5.6-1.759-1.451-4.217-2.177-7.373-2.177-4.242 0-7.347.467-9.313 1.4zm37.174-3.268c0-8.71 1.59-15.53 4.773-20.455C120.884 2.463 125.553 0 131.71 0c6.157 0 10.827 2.463 14.009 7.389 3.182 4.926 4.773 11.744 4.773 20.455 0 8.712-1.565 15.53-4.696 20.456-3.13 4.926-7.773 7.389-13.93 7.389-6.21 0-10.917-2.476-14.125-7.428s-4.812-11.757-4.812-20.417zm12.417 0c0 11.304 2.173 16.956 6.52 16.956 2.224 0 3.815-1.257 4.773-3.772.957-2.515 1.435-6.91 1.435-13.184 0-6.274-.491-10.668-1.474-13.183-.983-2.515-2.613-3.772-4.89-3.772-2.224 0-3.841 1.296-4.85 3.889-1.01 2.592-1.514 6.948-1.514 13.066z"/>
</svg>
