<?xml version="1.0" encoding="utf-8"?>
<svg width="70px" height="88px" viewBox="0 0 70 88" version="1.1" xmlns:xlink="http://www.w3.org/1999/xlink" xmlns="http://www.w3.org/2000/svg">
  <desc>Created with Lunacy</desc>
  <g id="Group-28">
    <path d="M20.3368 20.777C12.4744 20.777 6.10093 14.4035 6.10093 6.54113C6.0993 4.26433 6.64522 2.02094 7.6945 0C2.96776 2.44444 0 7.32131 0 12.6423C0 20.5046 6.37348 26.8781 14.2356 26.8781C19.5574 26.8789 24.4343 23.9109 26.8787 19.1842C24.8576 20.2329 22.6144 20.7794 20.3368 20.777" transform="translate(35.16211 3.626953)" id="Fill-1" fill="#F3F3F3" stroke="none" />
    <path d="M10.1685 15.2804C7.92183 15.2804 6.10113 13.4597 6.10113 11.2131L6.10113 0L4.06735 0C1.82091 0 0 1.82091 0 4.06735L0 17.314C0 19.5606 1.82091 21.3813 4.06735 21.3813L17.7098 21.3813C19.9554 21.3813 21.7771 19.5606 21.7771 17.314L21.7771 15.2804L10.1685 15.2804Z" transform="translate(38.50977 64.24805)" id="Fill-3" fill="#F3F3F3" stroke="none" />
    <path d="M10.1685 15.2804C7.92183 15.2804 6.10113 13.4597 6.10113 11.2131L6.10113 0L4.06735 0C1.82091 0 0 1.82091 0 4.06735L0 17.314C0 19.5606 1.82091 21.3813 4.06735 21.3813L17.709 21.3813C19.9554 21.3813 21.7763 19.5606 21.7763 17.314L21.7763 15.2804L10.1685 15.2804Z" transform="translate(2.033691 64.24805)" id="Fill-7" fill="#F3F3F3" stroke="none" />
    <path d="M70.4226 22.4484L40.3616 22.4484L40.3616 0L36.2941 0L36.2941 22.4484L6.23374 22.4484C2.79237 22.4524 0.00407407 25.2405 0 28.6821L0 33.4779L4.06735 33.4779L4.06735 28.6821C4.06898 27.4857 5.03739 26.5173 6.23374 26.5157L36.2941 26.5157L36.2941 34.4398L40.3616 34.4398L40.3616 26.5157L70.4226 26.5157C71.6181 26.5173 72.5874 27.4857 72.589 28.6821L72.589 33.4779L76.6566 33.4779L76.6566 28.6821C76.6525 25.2405 73.8642 22.4524 70.4226 22.4484" transform="translate(11.06982 29.98438)" id="Fill-9" fill="#D0021B" stroke="none" />
    <path d="M5.55891 10.1685C5.13398 10.1693 4.72555 10.0031 4.42142 9.7055L0.490554 5.86773C-0.152946 5.24012 -0.164761 4.20978 0.463461 3.56628C1.09107 2.9236 2.12141 2.91158 2.76409 3.53919L5.55891 6.268L11.5042 0.463262C12.1477 -0.165164 13.1772 -0.15233 13.8056 0.490151C14.4333 1.13304 14.4204 2.16317 13.7779 2.79078L6.69578 9.7055C6.39144 10.0025 5.98383 10.1685 5.55891 10.1685" transform="translate(5.787598 70.06934)" id="Fill-11" fill="#D0021B" stroke="none" />
    <path d="M5.5579 10.1685C5.13297 10.1685 4.72536 10.0025 4.42103 9.7055L0.49036 5.86772C-0.152325 5.24011 -0.164955 4.20978 0.462452 3.56709C1.09088 2.92421 2.1204 2.91158 2.76308 3.53919L5.5579 6.268L11.5032 0.463262C12.1467 -0.165164 13.1762 -0.15233 13.8038 0.490151C14.4322 1.13304 14.4194 2.16317 13.7767 2.79078L6.69477 9.7055C6.39125 10.0025 5.98282 10.1685 5.5579 10.1685" transform="translate(42.26465 70.06934)" id="Fill-13" fill="#D0021B" stroke="none" />
    <path d="M6.10113 25.4497L19.7436 25.4497C23.111 25.4456 25.8404 22.716 25.8445 19.3486L25.8445 6.10093C25.8404 2.7335 23.111 0.00407407 19.7436 0L6.10113 0C2.7337 0.00407407 0.00407407 2.7335 0 6.10093L0 19.3486C0.00407407 22.716 2.7337 25.4456 6.10113 25.4497ZM4.06756 6.10093C4.06898 4.97852 4.97872 4.06898 6.10113 4.06735L19.7436 4.06735C20.866 4.06898 21.7755 4.97852 21.7771 6.10093L21.7771 19.3486C21.7755 20.471 20.866 21.3805 19.7436 21.3822L6.10113 21.3822C4.97872 21.3805 4.06898 20.471 4.06756 19.3486L4.06756 6.10093Z" transform="translate(36.47607 62.42871)" id="Fill-17" fill="#4B505A" fill-rule="evenodd" stroke="none" />
    <path d="M6.10113 25.4497L19.7436 25.4497C23.111 25.4456 25.8404 22.716 25.8445 19.3486L25.8445 6.10093C25.8404 2.7335 23.111 0.00407407 19.7436 0L6.10113 0C2.73289 0.00407407 0.00407407 2.7335 0 6.10093L0 19.3486C0.00407407 22.716 2.73289 25.4456 6.10113 25.4497ZM4.06756 6.10093C4.06898 4.97852 4.97852 4.06898 6.10113 4.06735L19.7436 4.06735C20.866 4.06898 21.7755 4.97852 21.7771 6.10093L21.7771 19.3486C21.7755 20.471 20.866 21.3805 19.7436 21.3822L6.10113 21.3822C4.97852 21.3805 4.06898 20.471 4.06756 19.3486L4.06756 6.10093Z" transform="translate(0 62.42871)" id="Fill-23" fill="#4B505A" fill-rule="evenodd" stroke="none" />
    <path d="M0 16.2694C0 25.255 7.28465 32.539 16.2694 32.539C25.255 32.539 32.539 25.255 32.539 16.2694C32.539 7.28465 25.255 0 16.2694 0C7.28465 0 0 7.28465 0 16.2694ZM4.06735 16.2694C4.06735 9.53048 9.53048 4.06735 16.2694 4.06735C23.0085 4.06735 28.4715 9.53048 28.4715 16.2694C28.4715 23.0083 23.0085 28.4717 16.2694 28.4717C9.53048 28.4717 4.06735 23.0083 4.06735 16.2694Z" transform="translate(33.12842 0)" id="Fill-26" fill="#4B505A" fill-rule="evenodd" stroke="none" />
  </g>
</svg>