<?xml version="1.0" encoding="utf-8"?>
<svg width="73px" height="80px" viewBox="0 0 73 80" version="1.1" xmlns:xlink="http://www.w3.org/1999/xlink" xmlns="http://www.w3.org/2000/svg">
  <desc>Created with Lunacy</desc>
  <g id="Group-12">
    <path d="M18.8334 75.2972L18.8334 12.4352C18.8334 10.1459 20.6889 8.29016 22.9784 8.29016L70.2858 8.29016L70.2858 4.14508C70.2858 1.85575 68.4303 0 66.1407 0L12.6158 0C10.3262 0 8.47067 1.85575 8.47067 4.14508L8.47067 67.007C8.47067 71.6856 4.67772 75.4777 0 75.4777L18.8286 75.4777C18.8301 75.4178 18.8334 75.3579 18.8334 75.2972" transform="translate(10.54346 2.072266)" id="Fill-1" fill="#F3F3F3" stroke="none" />
    <path d="M13.4439 4.14508L2.07254 4.14508C0.927668 4.14508 0 3.2172 0 2.07254C0 0.927875 0.927668 0 2.07254 0L13.4439 0C14.5886 0 15.5165 0.927875 15.5165 2.07254C15.5165 3.2172 14.5886 4.14508 13.4439 4.14508" transform="translate(30.9707 18.57031)" id="Fill-3" fill="#D0021B" stroke="none" />
    <path d="M34.2406 4.14508L2.07254 4.14508C0.927876 4.14508 0 3.21658 0 2.07254C0 0.927875 0.927876 0 2.07254 0L34.2406 0C35.3853 0 36.3132 0.927875 36.3132 2.07254C36.3132 3.21658 35.3853 4.14508 34.2406 4.14508" transform="translate(30.9707 36.31836)" id="Fill-5" fill="#D0021B" stroke="none" />
    <path d="M34.2406 4.14508L2.07254 4.14508C0.927876 4.14508 0 3.21658 0 2.07254C0 0.927875 0.927876 0 2.07254 0L34.2406 0C35.3853 0 36.3132 0.927875 36.3132 2.07254C36.3132 3.21658 35.3853 4.14508 34.2406 4.14508" transform="translate(30.9707 52.07422)" id="Fill-7" fill="#D0021B" stroke="none" />
    <path d="M10.5432 79.6228L70.2404 79.6228C77.2296 79.6147 82.8935 73.9509 82.9016 66.9617L82.9016 6.21762C82.8974 2.78508 80.1165 0.00414508 76.6839 0L23.159 0C19.7264 0.00414508 16.9455 2.78508 16.9413 6.21762L16.9413 44.2674L10.3627 44.2674C4.64207 44.2738 0.00642487 48.9094 0 54.6301L0 69.0796C0.00642487 74.8997 4.72311 79.6164 10.5432 79.6228ZM18.9175 75.4777L70.2404 75.4777C74.9418 75.4727 78.7517 71.663 78.7565 66.9617L78.7565 6.21762C78.7548 5.07378 77.828 4.14674 76.6839 4.14508L23.159 4.14508C22.0151 4.14674 21.0881 5.07378 21.0864 6.21762L21.0864 69.0796C21.0889 71.3934 20.3262 73.6423 18.9175 75.4777ZM4.14508 54.6301C4.14922 51.1975 6.93016 48.4166 10.3627 48.4124L16.9413 48.4124L16.9413 69.0804C16.9413 72.6141 14.0771 75.4785 10.5432 75.4785C7.00933 75.4785 4.14508 72.6141 4.14508 69.0804L4.14508 54.6301Z" id="Fill-9" fill="#4B505A" fill-rule="evenodd" stroke="none" />
  </g>
</svg>