<?xml version="1.0" encoding="utf-8"?>
<svg width="58px" height="88px" viewBox="0 0 58 88" version="1.1" xmlns:xlink="http://www.w3.org/1999/xlink" xmlns="http://www.w3.org/2000/svg">
  <desc>Created with Lunacy</desc>
  <g id="Group-13">
    <path d="M16.569 7.29111L62.5941 7.29111C62.5956 3.26386 59.2976 -0.00145773 55.2301 4.88217e-07L36.8201 4.88217e-07L36.8201 4.73922L25.7741 4.73922L25.7741 4.88217e-07L7.36402 4.88217e-07C3.2965 -0.00145773 -0.00147231 3.26386 4.93099e-07 7.29111L4.93099e-07 69.9946C-0.00147231 74.0219 3.2965 77.2872 7.36402 77.2857L9.20502 77.2857L9.20502 14.5822C9.20355 10.555 12.5015 7.28965 16.569 7.29111" transform="translate(1.84082 8.020508)" id="Fill-1" fill="#F3F3F3" stroke="none" />
    <path d="M40.5021 6.19744L57.0711 6.19744C62.154 6.19963 66.2739 10.2788 66.2762 15.3113L66.2762 78.0148C66.2739 83.0473 62.154 87.1265 57.0711 87.1287L9.20502 87.1287C4.12219 87.1265 0.00220921 83.0473 0 78.0148L0 15.3113C0.00220921 10.2788 4.12219 6.19963 9.20502 6.19744L25.7741 6.19744L25.7741 1.82278C25.777 0.817333 26.5996 0.00291644 27.6151 0L38.6611 0C39.6766 0.00291644 40.4991 0.817333 40.5021 1.82278L40.5021 6.19744ZM29.4561 10.9367L36.8201 10.9367L36.8201 3.64555L29.4561 3.64555L29.4561 10.9367ZM57.0711 83.4832C60.1174 83.4746 62.5855 81.031 62.5941 78.0148L62.5941 15.3113C62.5855 12.2952 60.1174 9.85156 57.0711 9.84299L40.5021 9.84299L40.5021 12.7594C40.4991 13.7649 39.6766 14.5793 38.6611 14.5822L27.6151 14.5822C26.5996 14.5793 25.777 13.7649 25.7741 12.7594L25.7741 9.84299L9.20502 9.84299C6.15871 9.85156 3.69066 12.2952 3.68201 15.3113L3.68201 78.0148C3.69066 81.031 6.15871 83.4746 9.20502 83.4832L57.0711 83.4832Z" id="Fill-3" fill="#4B505A" fill-rule="evenodd" stroke="none" />
    <path d="M41.68 2.22626e-05L1.841 2.22626e-05C0.824034 2.22626e-05 0 0.81608 0 1.8228C0 2.82952 0.824034 3.64558 1.841 3.64558L41.6987 3.64558C42.7155 3.64066 43.5353 2.82041 43.5304 1.8135C43.5252 0.806783 42.6968 -0.00489924 41.68 2.22626e-05" transform="translate(11.37744 73.64063)" id="Fill-5" fill="#4B505A" stroke="none" />
    <path d="M1.841 3.64555L23.2887 3.64555C24.3055 3.64555 25.1297 2.8295 25.1297 1.82278C25.1297 0.816057 24.3055 0 23.2887 0L1.841 0C0.824218 0 0 0.816057 0 1.82278C0 2.8295 0.824218 3.64555 1.841 3.64555" transform="translate(20.58252 65.62012)" id="Fill-7" fill="#4B505A" stroke="none" />
    <path d="M19.0178 9.42358C19.0128 14.6236 14.7518 18.8344 9.49995 18.8295C4.24941 18.8209 -0.00128841 14.6035 0 9.4059C0.00515511 4.20588 4.26671 -0.00491719 9.51873 4.30972e-06C14.7698 0.00492581 19.0229 4.22447 19.0178 9.42358ZM14.8906 7.20289C13.9867 5.04618 11.8581 3.64191 9.49995 3.64556C6.28685 3.64556 3.68201 6.22442 3.68201 9.4059C3.67851 11.7405 5.09664 13.8475 7.27491 14.7432C9.45319 15.6382 11.9616 15.1455 13.6293 13.4942C15.2969 11.8431 15.7945 9.3596 14.8906 7.20289Z" transform="translate(23.63818 21.50879)" id="Fill-9" fill="#D0021B" fill-rule="evenodd" stroke="none" />
    <path d="M4.27095 4.2838C6.9879 1.52248 10.7239 -0.0239621 14.6172 0.000280799C18.5107 -0.0239621 22.2467 1.52248 24.9635 4.2838C27.725 7.07283 29.2346 10.8642 29.2346 14.984C29.2316 15.9895 28.4096 16.8039 27.3936 16.8068L1.841 16.8068C0.82477 16.8039 0.00276151 15.9895 0 14.984C0 10.8642 1.50944 7.07283 4.27095 4.2838ZM6.90377 6.83569C5.21078 8.55876 4.12569 10.7774 3.81069 13.1613L25.4237 13.1613C25.1045 10.7789 24.02 8.56168 22.3308 6.83569C20.2934 4.79509 17.5153 3.64583 14.6172 3.64583C11.7191 3.64583 8.94102 4.79509 6.90377 6.83569Z" transform="translate(18.521 43.81934)" id="Fill-11" fill="#D0021B" fill-rule="evenodd" stroke="none" />
  </g>
</svg>