<?xml version="1.0" encoding="utf-8"?>
<svg width="65px" height="64px" viewBox="0 0 65 64" version="1.1" xmlns:xlink="http://www.w3.org/1999/xlink" xmlns="http://www.w3.org/2000/svg">
  <desc>Created with Lunacy</desc>
  <g id="Group-11">
    <path d="M9.11032 41.2456L9.11032 0C4.07915 0 0 4.07915 0 9.11032L0 50.3559C0 55.3871 4.07915 59.4662 9.11032 59.4662L77.4377 59.4662C82.4689 59.4662 86.548 55.3871 86.548 50.3559L18.2206 50.3559C13.1895 50.3559 9.11032 46.2768 9.11032 41.2456" transform="translate(2.277344 2.380859)" id="Fill-1" fill="#F3F3F3" stroke="none" />
    <path d="M0 9.80521C0 15.2206 4.38981 19.6104 9.8043 19.6104C15.2172 19.604 19.6031 15.2179 19.6095 9.80521C19.6095 4.39049 15.2197 0 9.8043 0C4.38981 0 0 4.39049 0 9.80521ZM4.55516 9.80521C4.55516 6.90562 6.90494 4.55516 9.8043 4.55516C12.703 4.5588 15.0516 6.90744 15.0543 9.80521C15.0543 12.7046 12.7037 15.0553 9.8043 15.0553C6.90494 15.0553 4.55516 12.7046 4.55516 9.80521Z" transform="translate(11.0791 34.48242)" id="Fill-3" fill="#D0021B" fill-rule="evenodd" stroke="none" />
    <path d="M0 9.80521C0 15.2206 4.39072 19.6104 9.80521 19.6104C15.2181 19.604 19.604 15.2179 19.6104 9.80521C19.6104 4.39049 15.2206 0 9.80521 0C4.39072 0 0 4.39049 0 9.80521ZM4.55516 9.80521C4.55516 6.90562 6.90585 4.55516 9.80521 4.55516C12.7039 4.5588 15.0516 6.90744 15.0553 9.80521C15.0553 12.7046 12.7046 15.0553 9.80521 15.0553C6.90585 15.0553 4.55516 12.7046 4.55516 9.80521Z" transform="translate(20.80078 34.48242)" id="Fill-5" fill="#D0021B" fill-rule="evenodd" stroke="none" />
    <path d="M88.8256 4.55516L2.27758 4.55516C1.01967 4.55516 0 3.5348 0 2.27758C0 1.01967 1.01967 0 2.27758 0L88.8256 0C90.0835 0 91.1032 1.01967 91.1032 2.27758C91.1032 3.5348 90.0835 4.55516 88.8256 4.55516" transform="translate(0 12.11523)" id="Fill-7" fill="#D0021B" stroke="none" />
    <path d="M79.7153 0C86.0044 0 91.1032 5.09882 91.1032 11.3879L91.1032 52.6121C91.1032 58.9012 86.0044 64 79.7153 64L11.3879 64C5.09882 64 0 58.9012 0 52.6121L0 11.3879C0 5.09882 5.09882 0 11.3879 0L79.7153 0ZM11.3879 4.55516L79.7153 4.55516C83.4831 4.55516 86.548 7.72327 86.548 11.4911L86.548 24.5979L4.55516 24.5979L4.55516 11.4911C4.55516 7.72327 7.6201 4.55516 11.3879 4.55516ZM11.3879 59.6726L79.7153 59.6726C83.4831 59.6726 86.548 56.5045 86.548 52.7367L86.548 29.153L4.55516 29.153L4.55516 52.7367C4.55516 56.5045 7.6201 59.6726 11.3879 59.6726Z" id="Fill-9" fill="#4B505A" fill-rule="evenodd" stroke="none" />
  </g>
</svg>