<?xml version="1.0" encoding="utf-8"?>
<svg width="72px" height="64px" viewBox="0 0 72 64" version="1.1" xmlns:xlink="http://www.w3.org/1999/xlink" xmlns="http://www.w3.org/2000/svg">
  <desc>Created with Lunacy</desc>
  <g id="Group-15">
    <path d="M9.03955 58.5763L9.03955 12.6554C9.0381 8.66097 12.2768 5.42229 16.2712 5.42373L82.9286 5.42373C82.1095 2.22952 79.2295 -0.00288985 75.9322 2.80784e-06L7.23164 2.80784e-06C3.23724 -0.00144352 -0.00144584 3.23725 4.84235e-07 7.23164L4.84235e-07 53.1525C-0.00144584 57.1469 3.23724 60.3856 7.23164 60.3842L9.27476 60.3842C9.11295 59.7952 9.03394 59.1872 9.03955 58.5763" transform="translate(1.808105 1.807617)" id="Fill-1" fill="#F3F3F3" stroke="none" />
    <path d="M9.03955 0L77.7401 0C82.7316 0.00216949 86.7775 4.04809 86.7797 9.03955L86.7797 54.9605C86.7775 59.9519 82.7316 63.9978 77.7401 64L9.03955 64C4.04809 63.9978 0.00216949 59.9519 0 54.9605L0 9.03955C0.00216949 4.04809 4.04809 0.00216949 9.03955 0ZM77.7401 60.3842C80.7317 60.3757 83.1553 57.952 83.1638 54.9604L83.1638 9.03955C83.1553 6.048 80.7317 3.62432 77.7401 3.61582L9.03955 3.61582C6.048 3.62432 3.62432 6.048 3.61582 9.03955L3.61582 54.9604C3.62432 57.952 6.048 60.3757 9.03955 60.3842L77.7401 60.3842Z" id="Fill-3" fill="#4B505A" fill-rule="evenodd" stroke="none" />
    <path d="M22.8701 0L1.80791 0C0.809943 0 0 0.809401 0 1.80791C0 2.80642 0.809943 3.61582 1.80791 3.61582L22.8701 3.61582C23.8686 3.61582 24.678 2.80642 24.678 1.80791C24.678 0.809401 23.8686 0 22.8701 0" transform="translate(50.42236 30.19238)" id="Fill-5" fill="#4B505A" stroke="none" />
    <path d="M22.8701 0L1.80791 0C0.809943 0 0 0.809401 0 1.80791C0 2.80642 0.809943 3.61582 1.80791 3.61582L22.8701 3.61582C23.8686 3.61582 24.678 2.80642 24.678 1.80791C24.678 0.809401 23.8686 0 22.8701 0" transform="translate(50.42236 41.7627)" id="Fill-7" fill="#4B505A" stroke="none" />
    <path d="M22.8701 0L1.80791 0C0.809943 0 0 0.809401 0 1.80791C0 2.80642 0.809943 3.61582 1.80791 3.61582L22.8701 3.61582C23.8686 3.61582 24.678 2.80642 24.678 1.80791C24.678 0.809401 23.8686 0 22.8701 0" transform="translate(50.42236 18.62109)" id="Fill-9" fill="#4B505A" stroke="none" />
    <path d="M18.6759 9.33478C18.6772 14.49 14.5021 18.6708 9.34671 18.6759C4.18784 18.6688 0.00705085 14.488 0 9.32918C0.00488136 4.17446 4.1864 -0.00144595 9.34111 0C14.4956 0.00216987 18.6744 4.18007 18.6759 9.33478ZM15.0601 9.34671C15.0649 6.18721 12.5069 3.6207 9.34671 3.61582C6.18847 3.61437 3.62504 6.17021 3.61582 9.32918C3.61076 12.4894 6.16877 15.055 9.32899 15.0601C12.4894 15.0649 15.055 12.5071 15.0601 9.34671Z" transform="translate(16.57861 12.60059)" id="Fill-11" fill="#D0021B" fill-rule="evenodd" stroke="none" />
    <path d="M4.19417 4.24897C6.86228 1.50944 10.5311 -0.0243864 14.3544 0.000382005C18.1793 -0.0278214 21.8495 1.50673 24.5154 4.24897C27.2273 7.01453 28.7098 10.775 28.7098 14.8612C28.7069 15.8585 27.8989 16.6662 26.9019 16.6691L1.80791 16.6691C0.810667 16.6662 0.00271186 15.8585 0 14.8612C0 10.775 1.48231 7.01453 4.19417 4.24897ZM6.77966 6.78004C5.11711 8.48906 4.05225 10.6896 3.74219 13.0533L24.9674 13.0533C24.6539 10.6904 23.5889 8.49123 21.9301 6.78004C19.9293 4.75536 17.2012 3.6162 14.3544 3.6162C11.5084 3.6162 8.78029 4.75536 6.77966 6.78004Z" transform="translate(11.5708 34.72949)" id="Fill-13" fill="#D0021B" fill-rule="evenodd" stroke="none" />
  </g>
</svg>