<svg xmlns="http://www.w3.org/2000/svg" style="width:0; height:0; visibility:hidden;">
    <symbol id="icon_account" viewBox="0 0 20 20">
       <path fill-rule="evenodd" d="M5.55732937,14.7447826 C6.71952743,15.8334249 8.28192024,16.5 10,16.5 C11.7144951,16.5 13.2739522,15.8362036 14.4353909,14.7515912 L13.0627873,14.431317 C12.7023464,14.3472142 12.3898759,14.1238014 12.1937112,13.8099379 L12,13.5 L11,13 L11.6679456,12.7773515 C11.9984349,12.6671884 12.2477755,12.3929728 12.326109,12.0535277 L12.5,11.3 C13.2333333,11.4333333 13.6,11 13.6,10 C13.6,9.33333333 13.3666667,9 12.9,9 C12.9,8.5 13.1,8 13.1,7 C13.1,5.5 12.1,4.6 9.5,4.6 C8.63333333,4.6 8.13333333,5.06666667 8,6 C7.26666667,6 6.9,6.33333333 6.9,7 C6.9,8 7.1,8.5 7.1,9 C6.63333333,9 6.4,9.33333333 6.4,10 C6.4,11 6.76666667,11.4333333 7.5,11.3 L7.673891,12.0535277 C7.75222449,12.3929728 8.0015651,12.6671884 8.33205443,12.7773515 L9,13 L8,13.5 L7.70208468,13.8972204 C7.50681648,14.157578 7.22694266,14.3417725 6.91058144,14.4181355 L5.55732937,14.7447826 L5.55732937,14.7447826 Z M10,18 C5.581722,18 2,14.418278 2,10 C2,5.581722 5.581722,2 10,2 C14.418278,2 18,5.581722 18,10 C18,14.418278 14.418278,18 10,18 Z"/>
    </symbol>
    <symbol id="icon_add" viewBox="0 0 24 24">
       <circle cx="12" cy="12" r="12"/> <path fill="#FFF" d="M13,11 L19,11 C19.5522847,11 20,11.4477153 20,12 C20,12.5522847 19.5522847,13 19,13 L13,13 L13,19 C13,19.5522847 12.5522847,20 12,20 C11.4477153,20 11,19.5522847 11,19 L11,13 L5,13 C4.44771525,13 4,12.5522847 4,12 C4,11.4477153 4.44771525,11 5,11 L11,11 L11,5 C11,4.44771525 11.4477153,4 12,4 C12.5522847,4 13,4.44771525 13,5 L13,11 Z"/>
    </symbol>
    <symbol id="icon_avaliable" viewBox="0 0 12 12">
       <!-- Generator: Sketch 54.1 (76490) - https://sketchapp.com --> <title>status/avaliable</title> <desc>Created with Sketch.</desc> <g id="Desktop" stroke="none" stroke-width="1" fill="none" fill-rule="evenodd"> <g id="Artboard"> <g id="status/avaliable"> <circle id="Oval" fill="#31B64B" fill-rule="evenodd" cx="6" cy="6" r="6"/> <polyline id="Path-2" stroke="#FFFFFF" stroke-width="1" stroke-linecap="round" stroke-linejoin="round" points="3 5.27122368 5.93096924 7.54244736 10.4346313 3"/> </g> </g> </g>
    </symbol>
    <symbol id="icon_calendar" viewBox="0 0 20 20">
       <path fill-rule="evenodd" d="M5.8458278,3 L14.1541722,3 C15.4914503,3 15.9763797,3.13923842 16.4652686,3.40069906 C16.9541574,3.66215969 17.3378403,4.04584256 17.5993009,4.53473144 C17.8607616,5.02362033 18,5.50854969 18,6.8458278 L18,13.1541722 C18,14.4914503 17.8607616,14.9763797 17.5993009,15.4652686 C17.3378403,15.9541574 16.9541574,16.3378403 16.4652686,16.5993009 C15.9763797,16.8607616 15.4914503,17 14.1541722,17 L5.8458278,17 C4.50854969,17 4.02362033,16.8607616 3.53473144,16.5993009 C3.04584256,16.3378403 2.66215969,15.9541574 2.40069906,15.4652686 C2.13923842,14.9763797 2,14.4914503 2,13.1541722 L2,6.8458278 C2,5.50854969 2.13923842,5.02362033 2.40069906,4.53473144 C2.66215969,4.04584256 3.04584256,3.66215969 3.53473144,3.40069906 C4.02362033,3.13923842 4.50854969,3 5.8458278,3 Z M5.03833112,6.5 C4.50341988,6.5 4.30944813,6.55569537 4.11389258,6.66027962 C3.91833702,6.76486388 3.76486388,6.91833702 3.66027962,7.11389258 C3.55569537,7.30944813 3.5,7.50341988 3.5,8.03833112 L3.5,13.4488918 C3.5,14.1621068 3.57426049,14.4207358 3.71370616,14.6814766 C3.85315184,14.9422173 4.0577827,15.1468482 4.31852344,15.2862938 C4.57926418,15.4257395 4.83789317,15.5 5.55110816,15.5 L14.4488918,15.5 C15.1621068,15.5 15.4207358,15.4257395 15.6814766,15.2862938 C15.9422173,15.1468482 16.1468482,14.9422173 16.2862938,14.6814766 C16.4257395,14.4207358 16.5,14.1621068 16.5,13.4488918 L16.5,8.03833112 C16.5,7.50341988 16.4443046,7.30944813 16.3397204,7.11389258 C16.2351361,6.91833702 16.081663,6.76486388 15.8861074,6.66027962 C15.6905519,6.55569537 15.4965801,6.5 14.9616689,6.5 L5.03833112,6.5 Z M6.5,10.25 C5.80964406,10.25 5.25,9.69035594 5.25,9 C5.25,8.30964406 5.80964406,7.75 6.5,7.75 C7.19035594,7.75 7.75,8.30964406 7.75,9 C7.75,9.69035594 7.19035594,10.25 6.5,10.25 Z M10,9.75 C9.58578644,9.75 9.25,9.41421356 9.25,9 C9.25,8.58578644 9.58578644,8.25 10,8.25 C10.4142136,8.25 10.75,8.58578644 10.75,9 C10.75,9.41421356 10.4142136,9.75 10,9.75 Z M13.5,9.75 C13.0857864,9.75 12.75,9.41421356 12.75,9 C12.75,8.58578644 13.0857864,8.25 13.5,8.25 C13.9142136,8.25 14.25,8.58578644 14.25,9 C14.25,9.41421356 13.9142136,9.75 13.5,9.75 Z M10,13.75 C9.58578644,13.75 9.25,13.4142136 9.25,13 C9.25,12.5857864 9.58578644,12.25 10,12.25 C10.4142136,12.25 10.75,12.5857864 10.75,13 C10.75,13.4142136 10.4142136,13.75 10,13.75 Z M6.5,13.75 C6.08578644,13.75 5.75,13.4142136 5.75,13 C5.75,12.5857864 6.08578644,12.25 6.5,12.25 C6.91421356,12.25 7.25,12.5857864 7.25,13 C7.25,13.4142136 6.91421356,13.75 6.5,13.75 Z M13.5,13.75 C13.0857864,13.75 12.75,13.4142136 12.75,13 C12.75,12.5857864 13.0857864,12.25 13.5,12.25 C13.9142136,12.25 14.25,12.5857864 14.25,13 C14.25,13.4142136 13.9142136,13.75 13.5,13.75 Z"/>
    </symbol>
    <symbol id="icon_delete" viewBox="0 0 20 20">
       <!-- Generator: sketchtool 54.1 (76490) - https://sketchapp.com --> <title>678C54F5-DB4D-4D70-9AF2-C68F09C3DB37</title> <desc>Created with sketchtool.</desc> <path d="M8,3 L12,3 L12.2763932,3.5527864 C12.4134342,3.82686844 12.693567,4 13,4 L7,4 C7.30643303,4 7.58656578,3.82686844 7.7236068,3.5527864 L8,3 Z M4.69478543,4 L15.3052146,4 C15.483414,4 15.5952759,4.02784768 15.6930537,4.08013981 C15.7908315,4.13243194 15.8675681,4.20916851 15.9198602,4.30694629 C15.9721523,4.40472407 16,4.51658596 16,4.69478543 L16,4.80521457 C16,4.98341404 15.9721523,5.09527593 15.9198602,5.19305371 C15.8675681,5.29083149 15.7908315,5.36756806 15.6930537,5.41986019 C15.5952759,5.47215232 15.483414,5.5 15.3052146,5.5 L4.69478543,5.5 C4.51658596,5.5 4.40472407,5.47215232 4.30694629,5.41986019 C4.20916851,5.36756806 4.13243194,5.29083149 4.08013981,5.19305371 C4.02784768,5.09527593 4,4.98341404 4,4.80521457 L4,4.69478543 C4,4.51658596 4.02784768,4.40472407 4.08013981,4.30694629 C4.13243194,4.20916851 4.20916851,4.13243194 4.30694629,4.08013981 C4.40472407,4.02784768 4.51658596,4 4.69478543,4 Z M5.69999981,6.5 L14.3000002,6.5 L13.2622486,15.2809741 C13.168066,16.077903 13.059464,16.3587963 12.880275,16.6393517 C12.7010859,16.919907 12.4589982,17.1350691 12.1593513,17.2800924 C11.8597043,17.4251156 11.5680063,17.5 10.7655313,17.5 L9.2344687,17.5 C8.43199371,17.5 8.14029568,17.4251156 7.84064873,17.2800924 C7.54100178,17.1350691 7.29891408,16.919907 7.11972503,16.6393517 C6.94053599,16.3587963 6.83193397,16.077903 6.73775144,15.2809741 L5.69999981,6.5 Z" id="Style"/>
    </symbol>
    <symbol id="icon_download" viewBox="0 0 24 24">
       <path d="M12.5,14 L12.5,17.2828317 L14.7755903,15.5061741 C14.9161104,15.3964636 15.0214764,15.3495388 15.1307961,15.3305475 C15.2401158,15.3115563 15.3479033,15.3247818 15.4493781,15.3696375 C15.550853,15.4144932 15.6417291,15.4854968 15.7515155,15.6259199 L15.8195495,15.7129392 C15.9293359,15.8533623 15.9762931,15.9586555 15.9952975,16.0678996 C16.0143019,16.1771438 16.0010673,16.2848568 15.9561806,16.3862616 C15.9112938,16.4876664 15.8402411,16.5784797 15.6997209,16.6881902 L12.3698018,19.2880108 C12.0077732,19.5706631 11.4996562,19.5706631 11.1376276,19.2880108 L7.80770842,16.6881902 C7.66718824,16.5784797 7.59613552,16.4876664 7.55124881,16.3862616 C7.50636211,16.2848568 7.49312747,16.1771438 7.51213185,16.0678996 C7.53113624,15.9586555 7.57809346,15.8533623 7.68787986,15.7129392 L7.75591383,15.6259199 C7.86570023,15.4854968 7.95657635,15.4144932 8.05805123,15.3696375 C8.15952611,15.3247818 8.26731357,15.3115563 8.37663329,15.3305475 C8.48595301,15.3495388 8.59131893,15.3964636 8.73183911,15.5061741 L11,17.2770313 L11,14 L6.5,14 C5.11928813,14 4,12.8807119 4,11.5 C4,10.4319341 4.66977954,9.52030359 5.61223522,9.16221188 C5.53953399,8.95495273 5.5,8.73209319 5.5,8.5 C5.5,7.3954305 6.3954305,6.5 7.5,6.5 C7.78603261,6.5 8.05804095,6.560045 8.30410778,6.66821776 C8.93159056,5.10434629 10.4618283,4 12.25,4 C14.1639516,4 15.782407,5.26516965 16.3146795,7.00482218 C16.3760478,7.00162071 16.4378346,7 16.5,7 C18.4329966,7 20,8.56700338 20,10.5 C20,12.4329966 18.4329966,14 16.5,14 L12.5,14 Z M12.5,14 L12.5,10.1947854 C12.5,10.016586 12.4721523,9.90472407 12.4198602,9.80694629 C12.3675681,9.70916851 12.2908315,9.63243194 12.1930537,9.58013981 C12.0952759,9.52784768 11.983414,9.5 11.8052146,9.5 L11.6947854,9.5 C11.516586,9.5 11.4047241,9.52784768 11.3069463,9.58013981 C11.2091685,9.63243194 11.1324319,9.70916851 11.0801398,9.80694629 C11.0278477,9.90472407 11,10.016586 11,10.1947854 L11,14 L12.5,14 Z" id="Style"/>
    </symbol>
    <symbol id="icon_e-mail" viewBox="0 0 20 20">
       <path fill-rule="evenodd" d="M3.5345625,7.87215625 C3.16584375,7.622375 2.81778125,7.27884375 2.49071875,6.84165625 C2.163625,6.4045 2,5.9984375 2,5.62371875 C2,5.1598125 2.12340625,4.7731875 2.37021875,4.463875 C2.6170625,4.154625 2.9695,4 3.42746875,4 L16.56075,4 C16.9472813,4 17.281875,4.13971875 17.5644063,4.4193125 C17.847,4.69884375 17.9883125,5.0349375 17.9883125,5.4275625 C17.9883125,5.89740625 17.8426563,6.3465 17.5510313,6.77459375 C17.259625,7.202875 16.896875,7.56875 16.4626875,7.87196875 C14.2263125,9.42446875 12.8343438,10.3910625 12.2872188,10.7716562 C12.22775,10.813375 12.10125,10.9039375 11.908,11.0438437 C11.714625,11.1837187 11.554125,11.29675 11.4262188,11.3829687 C11.2983125,11.469125 11.1436875,11.5657187 10.9623125,11.672875 C10.7810313,11.7797187 10.6098438,11.86025 10.4493125,11.9135 C10.2886875,11.9671562 10.1399688,11.9937812 10.0031563,11.9937812 L9.99415625,11.9937812 L9.9851875,11.9937812 C9.84840625,11.9937812 9.69971875,11.9671875 9.53909375,11.9135 C9.3785,11.86025 9.20746875,11.7798125 9.02603125,11.672875 C8.84453125,11.5658437 8.68990625,11.4691562 8.562,11.3829687 C8.4341875,11.29675 8.2735625,11.1837187 8.08025,11.0438437 C7.88696875,10.9040625 7.760625,10.813375 7.70115625,10.7716562 C7.159875,10.3910625 6.3806875,9.848375 5.3635625,9.1435625 C4.34646875,8.43875 3.7368125,8.014875 3.5345625,7.87215625 Z M17.0960094,8.82671563 C17.4351969,8.59480938 17.7325406,8.33590313 17.9883531,8.05052813 L17.9883531,15.1344344 C17.9883531,15.5272781 17.8486969,15.8630906 17.5690406,16.1427156 C17.2894469,16.4223719 16.9533844,16.5621531 16.5608844,16.5621531 L3.42757188,16.5621531 C3.03497812,16.5621531 2.69885313,16.4223719 2.41932188,16.1427156 C2.13972813,15.8631844 2.00000938,15.5272469 2.00000938,15.1344344 L2.00000938,8.05052813 C2.26172813,8.34193438 2.56210312,8.60084063 2.90122813,8.82671563 C5.05435313,10.2898719 6.53244688,11.3160594 7.33547813,11.9048719 C7.67447813,12.1545906 7.94960313,12.3495281 8.16069688,12.4892156 C8.37185313,12.6289969 8.65294688,12.7717469 9.00382188,12.9174031 C9.35469688,13.0632781 9.68188438,13.1359969 9.98522813,13.1359969 L9.99419688,13.1359969 L10.0032906,13.1359969 C10.3066969,13.1359969 10.6336969,13.0632781 10.9845719,12.9174031 C11.3355719,12.7717469 11.6164469,12.6289969 11.8276969,12.4892156 C12.0389156,12.3495281 12.3139469,12.1545906 12.6529469,11.9048719 C13.6640094,11.1731844 15.1452594,10.1470594 17.0960094,8.82671563 Z"/>
    </symbol>
    <symbol id="icon_events" viewBox="0 0 20 20">
       <!-- Generator: sketchtool 54.1 (76490) - https://sketchapp.com --> <title>2B5DE130-6E33-4911-B834-DD7832F66384</title> <desc>Created with sketchtool.</desc> <g id="Symbols" stroke="none" stroke-width="1" fill="none" fill-rule="evenodd"> <g id="icons/events" fill="#A0A0A0"> <path d="M5.8458278,3 L14.1541722,3 C15.4914503,3 15.9763797,3.13923842 16.4652686,3.40069906 C16.9541574,3.66215969 17.3378403,4.04584256 17.5993009,4.53473144 C17.8607616,5.02362033 18,5.50854969 18,6.8458278 L18,13.1541722 C18,14.4914503 17.8607616,14.9763797 17.5993009,15.4652686 C17.3378403,15.9541574 16.9541574,16.3378403 16.4652686,16.5993009 C15.9763797,16.8607616 15.4914503,17 14.1541722,17 L5.8458278,17 C4.50854969,17 4.02362033,16.8607616 3.53473144,16.5993009 C3.04584256,16.3378403 2.66215969,15.9541574 2.40069906,15.4652686 C2.13923842,14.9763797 2,14.4914503 2,13.1541722 L2,6.8458278 C2,5.50854969 2.13923842,5.02362033 2.40069906,4.53473144 C2.66215969,4.04584256 3.04584256,3.66215969 3.53473144,3.40069906 C4.02362033,3.13923842 4.50854969,3 5.8458278,3 Z M5.03833112,6.5 C4.50341988,6.5 4.30944813,6.55569537 4.11389258,6.66027962 C3.91833702,6.76486388 3.76486388,6.91833702 3.66027962,7.11389258 C3.55569537,7.30944813 3.5,7.50341988 3.5,8.03833112 L3.5,13.4488918 C3.5,14.1621068 3.57426049,14.4207358 3.71370616,14.6814766 C3.85315184,14.9422173 4.0577827,15.1468482 4.31852344,15.2862938 C4.57926418,15.4257395 4.83789317,15.5 5.55110816,15.5 L14.4488918,15.5 C15.1621068,15.5 15.4207358,15.4257395 15.6814766,15.2862938 C15.9422173,15.1468482 16.1468482,14.9422173 16.2862938,14.6814766 C16.4257395,14.4207358 16.5,14.1621068 16.5,13.4488918 L16.5,8.03833112 C16.5,7.50341988 16.4443046,7.30944813 16.3397204,7.11389258 C16.2351361,6.91833702 16.081663,6.76486388 15.8861074,6.66027962 C15.6905519,6.55569537 15.4965801,6.5 14.9616689,6.5 L5.03833112,6.5 Z M6.5,10.25 C5.80964406,10.25 5.25,9.69035594 5.25,9 C5.25,8.30964406 5.80964406,7.75 6.5,7.75 C7.19035594,7.75 7.75,8.30964406 7.75,9 C7.75,9.69035594 7.19035594,10.25 6.5,10.25 Z M10,9.75 C9.58578644,9.75 9.25,9.41421356 9.25,9 C9.25,8.58578644 9.58578644,8.25 10,8.25 C10.4142136,8.25 10.75,8.58578644 10.75,9 C10.75,9.41421356 10.4142136,9.75 10,9.75 Z M13.5,9.75 C13.0857864,9.75 12.75,9.41421356 12.75,9 C12.75,8.58578644 13.0857864,8.25 13.5,8.25 C13.9142136,8.25 14.25,8.58578644 14.25,9 C14.25,9.41421356 13.9142136,9.75 13.5,9.75 Z M10,13.75 C9.58578644,13.75 9.25,13.4142136 9.25,13 C9.25,12.5857864 9.58578644,12.25 10,12.25 C10.4142136,12.25 10.75,12.5857864 10.75,13 C10.75,13.4142136 10.4142136,13.75 10,13.75 Z M6.5,13.75 C6.08578644,13.75 5.75,13.4142136 5.75,13 C5.75,12.5857864 6.08578644,12.25 6.5,12.25 C6.91421356,12.25 7.25,12.5857864 7.25,13 C7.25,13.4142136 6.91421356,13.75 6.5,13.75 Z M13.5,13.75 C13.0857864,13.75 12.75,13.4142136 12.75,13 C12.75,12.5857864 13.0857864,12.25 13.5,12.25 C13.9142136,12.25 14.25,12.5857864 14.25,13 C14.25,13.4142136 13.9142136,13.75 13.5,13.75 Z" id="Style"/> </g> </g>
    </symbol>
    <symbol id="icon_fav" viewBox="0 0 20 20">
       <path fill-rule="evenodd" d="M9.72003265,14.0951334 L6.17706076,16.2109458 C5.9589435,16.3412023 5.67653075,16.2699771 5.54627422,16.0518599 C5.48558919,15.9502415 5.46640892,15.8291421 5.49272202,15.7137446 L6.4101407,11.6903561 C6.44775632,11.5253908 6.39177307,11.353092 6.26437719,11.2417422 L3.15728147,8.52599767 C2.96599821,8.3588073 2.94646706,8.06820702 3.11365742,7.87692376 C3.19154951,7.78780707 3.30079488,7.73214377 3.41867561,7.72150923 L7.52864342,7.35073082 C7.69715864,7.33552831 7.84372472,7.22904183 7.91025723,7.07347215 L9.53293835,3.27923732 C9.63283605,3.04565147 9.90317789,2.93727581 10.1367637,3.03717352 C10.2455887,3.08371472 10.3322864,3.17041233 10.3788276,3.27923732 L12.0015087,7.07347215 C12.0680412,7.22904183 12.2146073,7.33552831 12.3831225,7.35073082 L16.4930903,7.72150923 C16.7461137,7.74433559 16.9327253,7.96795604 16.909899,8.22097948 C16.8992644,8.33886021 16.8436011,8.44810558 16.7544844,8.52599767 L13.6473887,11.2417422 C13.5199928,11.353092 13.4640096,11.5253908 13.5016252,11.6903561 L14.4190439,15.7137446 C14.4755233,15.9614379 14.3205137,16.2080186 14.0728204,16.264498 C13.9574229,16.2908111 13.8363235,16.2716308 13.7347051,16.2109458 L10.1917333,14.0951334 C10.0464658,14.0083817 9.86530014,14.0083817 9.72003265,14.0951334 Z"/>
    </symbol>
    <symbol id="icon_filter" viewBox="0 0 24 24">
       <!-- Generator: sketchtool 54.1 (76490) - https://sketchapp.com --> <title>0E3B5F5A-6DA0-490B-993C-24BF25E3A507</title> <desc>Created with sketchtool.</desc> <path d="M19.8292943,11 L21,11 C21.5522847,11 22,11.4477153 22,12 C22,12.5522847 21.5522847,13 21,13 L19.8292943,13 C19.4174579,14.1651924 18.3062188,15 17,15 C15.6937812,15 14.5825421,14.1651924 14.1707057,13 L3,13 C2.44771525,13 2,12.5522847 2,12 C2,11.4477153 2.44771525,11 3,11 L14.1707057,11 C14.5825421,9.83480763 15.6937812,9 17,9 C18.3062188,9 19.4174579,9.83480763 19.8292943,11 Z M17,11 C16.4477153,11 16,11.4477153 16,12 C16,12.5522847 16.4477153,13 17,13 C17.5522847,13 18,12.5522847 18,12 C18,11.4477153 17.5522847,11 17,11 Z M13.8292943,18 L21,18 C21.5522847,18 22,18.4477153 22,19 C22,19.5522847 21.5522847,20 21,20 L13.8292943,20 C13.4174579,21.1651924 12.3062188,22 11,22 C9.69378117,22 8.58254212,21.1651924 8.17070571,20 L3,20 C2.44771525,20 2,19.5522847 2,19 C2,18.4477153 2.44771525,18 3,18 L8.17070571,18 C8.58254212,16.8348076 9.69378117,16 11,16 C12.3062188,16 13.4174579,16.8348076 13.8292943,18 Z M11,18 C10.4477153,18 10,18.4477153 10,19 C10,19.5522847 10.4477153,20 11,20 C11.5522847,20 12,19.5522847 12,19 C12,18.4477153 11.5522847,18 11,18 Z M10.8292943,4 L21,4 C21.5522847,4 22,4.44771525 22,5 C22,5.55228475 21.5522847,6 21,6 L10.8292943,6 C10.4174579,7.16519237 9.30621883,8 8,8 C6.69378117,8 5.58254212,7.16519237 5.17070571,6 L3,6 C2.44771525,6 2,5.55228475 2,5 C2,4.44771525 2.44771525,4 3,4 L5.17070571,4 C5.58254212,2.83480763 6.69378117,2 8,2 C9.30621883,2 10.4174579,2.83480763 10.8292943,4 Z M8,4 C7.44771525,4 7,4.44771525 7,5 C7,5.55228475 7.44771525,6 8,6 C8.55228475,6 9,5.55228475 9,5 C9,4.44771525 8.55228475,4 8,4 Z" id="filter-02"/>
    </symbol>
    <symbol id="icon_hand" viewBox="0 0 24 24">
       <path fill-rule="evenodd" d="M21.5503632,13.2183233 C22.9073394,15.8866726 20.9381452,20.2046812 19.0270161,21.2085055 C17.1158869,22.2123298 15.986281,22.7985112 12.6240901,21.6386943 C9.26189916,20.4788774 4.68992293,18.4066854 3.5940457,17.9379518 C2.49816847,17.4692183 3.05942067,15.0776345 4.61418242,15.5363917 C6.16894418,15.995149 8.16502817,17.4506791 8.74728727,16.7810598 C9.32954638,16.1114405 8.46587915,15.1565378 7.76290779,13.6050767 C7.05993644,12.0536156 3.68236089,5.1813261 3.21504479,4.12610929 C2.74772869,3.07089249 3.11519088,2.26931396 3.62037754,2.07855559 C4.12556419,1.88779723 5.06995976,1.98393219 5.49230475,3.05502074 C5.91464975,4.12610929 8.57105835,9.32344346 8.87135972,9.79232795 C9.17166108,10.2612124 9.91117133,10.0731749 9.53646046,9.32344329 C9.16174959,8.57371174 8.76751191,7.80236455 8.49664883,7.14997698 C8.22578574,6.49758942 9.92670437,4.87024831 10.4724241,6.01011264 C11.0181438,7.14997696 11.7696367,8.57068845 12.1968634,9.18150819 C12.6240902,9.79232793 13.1257822,9.32344341 12.8255785,8.8011557 C12.5253747,8.278868 12.0514515,7.29858664 11.7037107,6.58429504 C11.35597,5.87000344 13.0167905,4.5025832 13.7332646,5.32894183 C14.4497386,6.15530046 15.2476719,7.97852753 15.5413351,8.47606795 C15.8349982,8.97360837 16.5960433,8.6646081 16.1812941,8.05873082 C15.7665448,7.45285353 15.2116961,6.41106514 16.1885957,5.87000349 C17.1654954,5.32894185 17.8581631,5.67765543 18.1994391,6.52320994 C18.5407151,7.36876445 20.1933869,10.549974 21.5503632,13.2183233 Z"/>
    </symbol>
    <symbol id="icon_info" viewBox="0 0 24 24">
       <path fill-rule="evenodd" d="M12,20 C7.57142857,20 4,16.4285714 4,12 C4,7.57142857 7.57142857,4 12,4 C16.4285714,4 20,7.57142857 20,12 C20,16.4285714 16.4285714,20 12,20 Z M12,18.5 C15.5982143,18.5 18.5,15.5982143 18.5,12 C18.5,8.40178571 15.5982143,5.5 12,5.5 C8.40178571,5.5 5.5,8.40178571 5.5,12 C5.5,15.5982143 8.40178571,18.5 12,18.5 Z M12,10 C11.3125,10 10.75,9.4375 10.75,8.75 C10.75,8.0625 11.3125,7.5 12,7.5 C12.6875,7.5 13.25,8.0625 13.25,8.75 C13.25,9.4375 12.6875,10 12,10 Z M10.7325155,11 L12.487223,11 C12.6655267,11 12.730184,11.0185651 12.7953691,11.0534265 C12.8605543,11.088288 12.911712,11.1394457 12.9465735,11.2046309 C12.9814349,11.269816 13,11.3344733 13,11.512777 L13,14.7217747 C13,14.8641217 13.0108202,14.9157421 13.0329328,14.9702439 C13.0550454,15.0247458 13.0884504,15.0705091 13.1336199,15.1081805 C13.1787894,15.1458519 13.2246562,15.17189 13.3602309,15.2152739 L13.9698204,15.4103425 C14.0752674,15.4440856 14.1109415,15.4643374 14.1460734,15.4936374 C14.1812053,15.5229374 14.2071869,15.558531 14.2243856,15.6009214 C14.2415843,15.6433117 14.25,15.6834609 14.25,15.7941752 L14.25,16.0368097 C14.25,16.1556094 14.2314349,16.230184 14.1965735,16.2953691 C14.161712,16.3605543 14.1105543,16.411712 14.0453691,16.4465735 C13.980184,16.4814349 13.9056094,16.5 13.7868097,16.5 L10.7325155,16.5 C10.5905256,16.5 10.519816,16.4814349 10.4546309,16.4465735 C10.3894457,16.411712 10.338288,16.3605543 10.3034265,16.2953691 C10.2685651,16.230184 10.25,16.1594744 10.25,16.0174845 L10.25,15.71391 C10.25,15.5978021 10.2595945,15.5556181 10.2787876,15.5115275 C10.2979806,15.4674369 10.3267721,15.4309178 10.3651662,15.4019652 C10.4035602,15.3730125 10.4423402,15.3538383 10.5552421,15.3267419 L11.0930105,15.1976775 C11.2435463,15.1615489 11.2952531,15.1359833 11.3464451,15.0973798 C11.3976372,15.0587763 11.4360259,15.0100842 11.4616166,14.9512967 C11.4872073,14.8925092 11.5,14.8362639 11.5,14.6814533 L11.5,12.8185467 C11.5,12.6637361 11.4872073,12.6074908 11.4616166,12.5487033 C11.4360259,12.4899158 11.3976372,12.4412237 11.3464451,12.4026202 C11.2952531,12.3640167 11.2435463,12.3384511 11.0930105,12.3023225 L10.5552421,12.1732581 C10.4423402,12.1461617 10.4035602,12.1269875 10.3651662,12.0980348 C10.3267721,12.0690822 10.2979806,12.0325631 10.2787876,11.9884725 C10.2595945,11.9443819 10.25,11.9021979 10.25,11.78609 L10.25,11.4825155 C10.25,11.3405256 10.2685651,11.269816 10.3034265,11.2046309 C10.338288,11.1394457 10.3894457,11.088288 10.4546309,11.0534265 C10.519816,11.0185651 10.5905256,11 10.7325155,11 Z"/>
    </symbol>
    <symbol id="icon_map" viewBox="0 0 20 20">
       <path fill-rule="evenodd" d="M2.52905785,3.02150076 L6.13486629,4.25062906 C6.27287664,4.29767327 6.31939307,4.32498232 6.36514166,4.364113 C6.41089025,4.40324368 6.44460483,4.45035563 6.46688227,4.50628289 C6.48915971,4.56221015 6.5,4.61505002 6.5,4.76085816 L6.5,16.5989387 C6.5,16.8198526 6.3209139,16.9989387 6.1,16.9989387 C6.05609828,16.9989387 6.01249601,16.9917114 5.97094215,16.9775468 L3.09540112,15.9973481 C2.68137009,15.8562154 2.54182078,15.7742883 2.40457502,15.6568962 C2.26732926,15.5395042 2.16618551,15.3981683 2.09935319,15.2303866 C2.03252088,15.0626048 2,14.9040852 2,14.4666608 L2,3.40010883 C2,3.17919493 2.1790861,3.00010883 2.4,3.00010883 C2.44390172,3.00010883 2.48750399,3.0073361 2.52905785,3.02150076 Z M7.86513371,4.25062906 L11.4709421,3.02150076 C11.6800416,2.95022407 11.9073314,3.06195151 11.9786081,3.27105098 C11.9927727,3.31260484 12,3.35620711 12,3.40010883 L12,15.2381894 C12,15.3839975 11.9891597,15.4368374 11.9668823,15.4927647 C11.9446048,15.5486919 11.9108902,15.5958039 11.8651417,15.6349346 C11.8193931,15.6740652 11.7728766,15.7013743 11.6348663,15.7484185 L8.02905785,16.9775468 C7.81995839,17.0488235 7.59266861,16.937096 7.52139193,16.7279966 C7.50722728,16.6864427 7.5,16.6428404 7.5,16.5989387 L7.5,4.76085816 C7.5,4.61505002 7.51084029,4.56221015 7.53311773,4.50628289 C7.55539517,4.45035563 7.58910975,4.40324368 7.63485834,4.364113 C7.68060693,4.32498232 7.72712336,4.29767327 7.86513371,4.25062906 Z M13.5290579,3.02150076 L16.4045989,4.00169949 C16.8186299,4.14283213 16.9581792,4.22475929 17.095425,4.34215131 C17.2326707,4.45954334 17.3338145,4.6008792 17.4006468,4.76866099 C17.4674791,4.93644278 17.5,5.09496237 17.5,5.53238679 L17.5,16.5989387 C17.5,16.8198526 17.3209139,16.9989387 17.1,16.9989387 C17.0560983,16.9989387 17.012496,16.9917114 16.9709421,16.9775468 L13.3651337,15.7484185 C13.2271234,15.7013743 13.1806069,15.6740652 13.1348583,15.6349346 C13.0891098,15.5958039 13.0553952,15.5486919 13.0331177,15.4927647 C13.0108403,15.4368374 13,15.3839975 13,15.2381894 L13,3.40010883 C13,3.17919493 13.1790861,3.00010883 13.4,3.00010883 C13.4439017,3.00010883 13.487504,3.0073361 13.5290579,3.02150076 L13.5290579,3.02150076 Z"/>
    </symbol>
    <symbol id="icon_notification" viewBox="0 0 512 512">
       <g> <g> <path d="M467.812,431.851l-36.629-61.056c-16.917-28.181-25.856-60.459-25.856-93.312V224c0-67.52-45.056-124.629-106.667-143.04
			V42.667C298.66,19.136,279.524,0,255.993,0s-42.667,19.136-42.667,42.667V80.96C151.716,99.371,106.66,156.48,106.66,224v53.483
			c0,32.853-8.939,65.109-25.835,93.291l-36.629,61.056c-1.984,3.307-2.027,7.403-0.128,10.752c1.899,3.349,5.419,5.419,9.259,5.419
			H458.66c3.84,0,7.381-2.069,9.28-5.397C469.839,439.275,469.775,435.136,467.812,431.851z"/> </g> </g> <g> <g> <path d="M188.815,469.333C200.847,494.464,226.319,512,255.993,512s55.147-17.536,67.179-42.667H188.815z"/> </g> </g>
    </symbol>
    <symbol id="icon_pdf" viewBox="0 0 26 34">
       <!-- Generator: sketchtool 54.1 (76490) - https://sketchapp.com --> <title>983E1CC2-C432-4616-97DC-DD3DD5F25E55</title> <desc>Created with sketchtool.</desc> <g id="Symbols" stroke="none" stroke-width="1" fill="none" fill-rule="evenodd"> <g id="icons/pdf"> <g id="pdf-icon" transform="translate(1.000000, 1.000000)"> <path d="M16.2071068,-0.5 L24.5,7.79289322 L24.5,30 C24.5,31.3801424 23.3801424,32.5 22,32.5 L2,32.5 C0.619857625,32.5 -0.5,31.3801424 -0.5,30 L-0.5,2 C-0.5,0.619857625 0.619857625,-0.5 2,-0.5 L16.2071068,-0.5 Z" id="Stroke-1" stroke="#D7D7D7" fill="#FFFFFF" stroke-linecap="round" stroke-linejoin="round"/> <path d="M15.5,-1.20710678 L25.2071068,8.5 L15.5,8.5 L15.5,-1.20710678 Z" id="Stroke-9" stroke="#D7D7D7" fill="#F3F3F3" stroke-linecap="round" stroke-linejoin="round"/> <path d="M19,11 L5,11 C3.9,11 3,11.9 3,13 L3,27 C3,28.1 3.9,29 5,29 L19,29 C20.1,29 21,28.1 21,27 L21,13 C21,11.9 20.1,11 19,11 L19,11 Z" id="Shape" fill="#DD0016" fill-rule="nonzero"/> <path d="M10.4618275,14.1232225 L13.1863035,14 C13.7227846,17.7785524 14.5569218,19.2570817 18,20.0542621 L17.9304169,22.7078437 C13.99139,22.9320589 11.8056144,23.6260343 7.57346625,26 L6,23.8325369 C7.87728211,22.2778377 8.96785702,20.9669312 9.57262001,19.6370624 C10.131784,18.4074656 10.2947077,17.3414811 10.4325515,14.6881122 C10.4469113,14.410069 10.4469113,14.410069 10.4618275,14.1232225 Z M12.4713809,18.8359913 C12.3020787,19.3611777 12.144742,19.768281 11.9993708,20.0573011 C11.8539995,20.3463212 11.6299883,20.7069705 11.3273371,21.1392492 L13.9863606,20.4765582 C13.6344355,20.211429 13.321121,19.9301264 13.0464171,19.6326504 C12.7717133,19.3351745 12.5800345,19.0696214 12.4713809,18.8359913 Z" id="Rectangle-18-Copy-6" fill="#FFFFFF" fill-rule="nonzero"/> </g> </g> </g>
    </symbol>
    <symbol id="icon_settings" viewBox="0 0 20 20">
       <path fill-rule="evenodd" d="M8.42964096,14.2199416 C8.91823447,14.401087 9.44724768,14.5 10,14.5 C12.2354444,14.5 14.0826212,12.8822185 14.4381859,10.75 L11.1258331,10.75 C10.6971143,10.75 10.3009619,10.9787187 10.0866025,11.35 L8.42964096,14.2199416 L8.42964096,14.2199416 Z M7.13038046,13.4703268 L8.78756442,10.6 C9.00192378,10.2287187 9.00192378,9.77128128 8.78756442,9.39999998 L7.13038046,6.52967316 C6.13360423,7.3540956 5.5,8.60101529 5.5,10 C5.5,11.3989847 6.13360423,12.6459044 7.13038046,13.4703268 Z M8.42964096,5.78005836 L10.0866025,8.64999998 C10.3009619,9.02128128 10.6971143,9.25 11.1258331,9.25 L14.4381859,9.25 C14.0826212,7.11778151 12.2354444,5.5 10,5.5 C9.44724768,5.5 8.91823447,5.59891298 8.42964096,5.78005836 L8.42964096,5.78005836 Z M9.13921833,3.56469005 L9.3164399,2.50136063 C9.36465869,2.21204783 9.61497277,2 9.90827627,2 L10.0917237,2 C10.3850272,2 10.6353413,2.21204783 10.6835601,2.50136063 L10.8607817,3.56469005 C10.9124236,3.87454166 11.1406223,4.1254962 11.4441852,4.2062703 L11.6491078,4.26079751 C11.9516973,4.3413126 12.2734448,4.23789532 12.4724536,3.99615459 L13.1573393,3.16420776 C13.3437544,2.93776493 13.6665566,2.87928315 13.9205649,3.02593491 L14.0794351,3.11765863 C14.3334434,3.26431038 14.4441978,3.57310623 14.3413001,3.84776786 L13.9637952,4.85543003 C13.8537693,5.14911867 13.9254989,5.4800099 14.1472631,5.70177408 L14.2982259,5.85273687 C14.5199901,6.07450106 14.8508813,6.14623067 15.14457,6.0362048 L16.1522321,5.6586999 C16.4268938,5.55580221 16.7356896,5.66655664 16.8823414,5.92056492 L16.9740651,6.07943508 C17.1207168,6.33344336 17.0622351,6.65624563 16.8357922,6.84266073 L16.0038454,7.52754642 C15.7621047,7.72655525 15.6586874,8.04830268 15.7392025,8.35089219 L15.7937297,8.55581477 C15.8745038,8.8593777 16.1254583,9.08757639 16.43531,9.13921833 L17.4986394,9.3164399 C17.7879522,9.36465869 18,9.61497277 18,9.90827627 L18,10.0917237 C18,10.3850272 17.7879522,10.6353413 17.4986394,10.6835601 L16.43531,10.8607817 C16.1254583,10.9124236 15.8745038,11.1406223 15.7937297,11.4441852 L15.7392025,11.6491078 C15.6586874,11.9516973 15.7621047,12.2734448 16.0038454,12.4724536 L16.8357922,13.1573393 C17.0622351,13.3437544 17.1207168,13.6665566 16.9740651,13.9205649 L16.8823414,14.0794351 C16.7356896,14.3334434 16.4268938,14.4441978 16.1522321,14.3413001 L15.14457,13.9637952 C14.8508813,13.8537693 14.5199901,13.9254989 14.2982259,14.1472631 L14.1472631,14.2982259 C13.9254989,14.5199901 13.8537693,14.8508813 13.9637952,15.14457 L14.3413001,16.1522321 C14.4441978,16.4268938 14.3334434,16.7356896 14.0794351,16.8823414 L13.9205649,16.9740651 C13.6665566,17.1207168 13.3437544,17.0622351 13.1573393,16.8357922 L12.4724536,16.0038454 C12.2734448,15.7621047 11.9516973,15.6586874 11.6491078,15.7392025 L11.4441852,15.7937297 C11.1406223,15.8745038 10.9124236,16.1254583 10.8607817,16.43531 L10.6835601,17.4986394 C10.6353413,17.7879522 10.3850272,18 10.0917237,18 L9.90827627,18 C9.61497277,18 9.36465869,17.7879522 9.3164399,17.4986394 L9.13921833,16.43531 C9.08757639,16.1254583 8.8593777,15.8745038 8.55581477,15.7937297 L8.35089219,15.7392025 C8.04830268,15.6586874 7.72655525,15.7621047 7.52754642,16.0038454 L6.84266073,16.8357922 C6.65624563,17.0622351 6.33344336,17.1207168 6.07943508,16.9740651 L5.92056492,16.8823414 C5.66655664,16.7356896 5.55580221,16.4268938 5.6586999,16.1522321 L6.0362048,15.14457 C6.14623067,14.8508813 6.07450106,14.5199901 5.85273687,14.2982259 L5.70177408,14.1472631 C5.4800099,13.9254989 5.14911867,13.8537693 4.85543003,13.9637952 L3.84776786,14.3413001 C3.57310623,14.4441978 3.26431038,14.3334434 3.11765863,14.0794351 L3.02593491,13.9205649 C2.87928315,13.6665566 2.93776493,13.3437544 3.16420776,13.1573393 L3.99615459,12.4724536 C4.23789532,12.2734448 4.3413126,11.9516973 4.26079751,11.6491078 L4.2062703,11.4441852 C4.1254962,11.1406223 3.87454166,10.9124236 3.56469005,10.8607817 L2.50136063,10.6835601 C2.21204783,10.6353413 2,10.3850272 2,10.0917237 L2,9.90827627 C2,9.61497277 2.21204783,9.36465869 2.50136063,9.3164399 L3.56469005,9.13921833 C3.87454166,9.08757639 4.1254962,8.8593777 4.2062703,8.55581477 L4.26079751,8.35089219 C4.3413126,8.04830268 4.23789532,7.72655525 3.99615459,7.52754642 L3.16420776,6.84266073 C2.93776493,6.65624563 2.87928315,6.33344336 3.02593491,6.07943508 L3.11765863,5.92056492 C3.26431038,5.66655664 3.57310623,5.55580221 3.84776786,5.6586999 L4.85543003,6.0362048 C5.14911867,6.14623067 5.4800099,6.07450106 5.70177408,5.85273687 L5.85273687,5.70177408 C6.07450106,5.4800099 6.14623067,5.14911867 6.0362048,4.85543003 L5.6586999,3.84776786 C5.55580221,3.57310623 5.66655664,3.26431038 5.92056492,3.11765863 L6.07943508,3.02593491 C6.33344336,2.87928315 6.65624563,2.93776493 6.84266073,3.16420776 L7.52754642,3.99615459 C7.72655525,4.23789532 8.04830268,4.3413126 8.35089219,4.26079751 L8.55581477,4.2062703 C8.8593777,4.1254962 9.08757639,3.87454166 9.13921833,3.56469005 Z"/>
    </symbol>
	<symbol width="20px" height="20px" viewBox="0 0 20 20" id="icon_phone">
		<path d="M2.22072 0.0525903C2.22072 0.0525903 0 0.770105 0 2.65571C0 4.54132 1.52283 7.80507 4.85788 11.1409C8.19294 14.4768 11.4559 16 13.3411 16C15.2262 16 15.9558 13.6345 15.9558 13.6345C16.0734 13.3388 15.9478 12.9604 15.6781 12.7913L12.3817 10.7235C12.1106 10.5535 11.668 10.5509 11.3952 10.7162L10.1175 11.4908C9.77552 11.6981 9.23823 11.6702 8.9236 11.4261C8.9236 11.4261 7.92972 10.7144 6.59802 9.40038C5.26633 8.08636 4.57868 7.14155 4.57868 7.14155C4.33244 6.82698 4.30059 6.29509 4.50815 5.95253L5.28248 4.67459C5.44842 4.40072 5.44078 3.95993 5.2668 3.69221L3.07136 0.313797C2.89676 0.0451134 2.51313 -0.078373 2.22072 0.0525903Z" transform="translate(2 2)"   stroke="none" />
	</symbol>
	<symbol width="20px" height="20px" viewBox="0 0 20 20" id="icon_skype">
		<path d="M15.3915 7.98329C15.3915 8.37695 15.3601 8.76262 15.3006 9.1396C15.723 9.82274 15.9673 10.6272 15.9671 11.4903C15.9671 13.9628 13.963 15.9674 11.49 15.9674C10.6272 15.9674 9.82255 15.7224 9.13956 15.3011C8.76295 15.3605 8.37606 15.3908 7.98311 15.3908C3.89249 15.3908 0.575889 12.0752 0.575889 7.98344C0.575889 7.58979 0.608037 7.20535 0.666432 6.82773C0.244455 6.14407 0 5.33947 0 4.47666C0 2.00405 2.00431 0 4.47666 0C5.33966 0 6.14493 0.244306 6.82721 0.666469C7.20386 0.607554 7.59065 0.57522 7.98326 0.57522C12.0749 0.57522 15.3915 3.89179 15.3915 7.98329ZM10.1253 12.4098C10.7268 12.1563 11.1872 11.8037 11.5005 11.3526C11.8147 10.9021 11.9723 10.3932 11.9716 9.82741C11.9716 9.35751 11.8808 8.95818 11.6986 8.63124C11.5177 8.30482 11.2642 8.03456 10.9399 7.82259C10.6181 7.60999 10.2287 7.43154 9.77232 7.28356C9.31508 7.13633 8.80624 7.00124 8.24527 6.88033C7.7979 6.77509 7.47608 6.69561 7.28212 6.64063C7.09041 6.58703 6.89964 6.51252 6.71209 6.41619C6.52462 6.32134 6.37877 6.20882 6.27393 6.07896C6.17069 5.95029 6.11939 5.79983 6.11887 5.62138C6.11957 5.33661 6.26944 5.09357 6.58294 4.88408C6.89452 4.6779 7.30732 4.57247 7.82326 4.57247C8.38088 4.57129 8.78162 4.66933 9.02452 4.85765C9.27399 5.04954 9.48852 5.31783 9.66764 5.66218C9.80934 5.90897 9.94038 6.08605 10.0651 6.19727C10.1932 6.31224 10.3778 6.36655 10.6133 6.36655C10.8744 6.36741 11.0981 6.27348 11.2729 6.08924C11.4477 5.90526 11.5374 5.69533 11.5374 5.46387C11.5374 5.21492 11.4678 4.95981 11.3296 4.69862C11.1911 4.4382 10.9726 4.19003 10.6757 3.95475C10.3768 3.71894 10.0031 3.53103 9.55471 3.38862C9.10515 3.24726 8.57396 3.1762 7.95991 3.1762C7.19206 3.1762 6.5218 3.28312 5.95248 3.49684C5.38116 3.71063 4.943 4.01756 4.64015 4.41856C4.33715 4.81845 4.1858 5.27792 4.1858 5.7917C4.1858 6.33051 4.32917 6.78541 4.61669 7.15141C4.90361 7.51384 5.29077 7.80076 5.77682 8.01065C6.26231 8.21977 6.86174 8.40186 7.57854 8.55829C8.1123 8.67074 8.53825 8.77747 8.8555 8.87811C9.17156 8.97771 9.42619 9.12048 9.62342 9.30795C9.8188 9.49301 9.91413 9.73038 9.91413 10.0293C9.91413 10.404 9.73736 10.7141 9.36939 10.969C9.00329 11.2216 8.52492 11.3496 7.93299 11.3496C7.50047 11.3496 7.15482 11.2867 6.89511 11.1609C6.6325 11.0355 6.42974 10.8752 6.28566 10.6833C6.1407 10.4889 6.00445 10.2453 5.87902 9.95389C5.77437 9.70235 5.64644 9.51172 5.49387 9.3806C5.34021 9.24945 5.15144 9.18326 4.93164 9.18326C4.66335 9.18326 4.43605 9.26749 4.25956 9.43554C4.0849 9.60238 3.99517 9.807 3.99517 10.0423C3.99517 10.4411 4.14029 10.8502 4.42651 11.2679C4.71217 11.6853 5.08369 12.02 5.54045 12.2695C6.18491 12.6179 7.00128 12.7905 7.98734 12.7905C8.81006 12.7905 9.52249 12.664 10.1253 12.4098Z" transform="translate(2 2)"  fill-rule="evenodd" stroke="none" />
	</symbol>


	<symbol width="20px" height="20px" viewBox="0 0 20 20" id="icon__color-picker">
	<defs>
		<path d="M12.6631 0.595577L15.4021 3.33458C16.1701 4.10258 16.2001 5.32058 15.4701 6.04958L13.4691 8.05258L14.7071 9.29158C15.0971 9.68158 15.0971 10.3146 14.7071 10.7056C14.5121 10.9006 14.2561 10.9986 14.0001 10.9986C13.7441 10.9986 13.4881 10.9006 13.2931 10.7056L12.0541 9.46658L6.47414 15.0456C6.14914 15.3716 5.71814 15.5736 5.26114 15.6156L1.09114 15.9946C1.06014 15.9976 1.03014 15.9986 1.00014 15.9986C0.736142 15.9986 0.481142 15.8936 0.293142 15.7056C0.0831417 15.4956 -0.0228583 15.2036 0.00414175 14.9076L0.383142 10.7376C0.425142 10.2806 0.627142 9.84858 0.952142 9.52358L6.53114 3.94358L5.29314 2.70558C4.90214 2.31458 4.90214 1.68158 5.29314 1.29158C5.68314 0.900577 6.31614 0.900577 6.70714 1.29158L7.94514 2.52958L9.94814 0.527577C10.6771 -0.200423 11.8951 -0.172423 12.6631 0.595577ZM7.94514 5.35758L2.36614 10.9376L7.85114 10.8496L10.6411 8.05358L7.94514 5.35758Z" transform="translate(2 2)" />
	</defs>
	<g >
		<path d="M12.6631 0.595577L15.4021 3.33458C16.1701 4.10258 16.2001 5.32058 15.4701 6.04958L13.4691 8.05258L14.7071 9.29158C15.0971 9.68158 15.0971 10.3146 14.7071 10.7056C14.5121 10.9006 14.2561 10.9986 14.0001 10.9986C13.7441 10.9986 13.4881 10.9006 13.2931 10.7056L12.0541 9.46658L6.47414 15.0456C6.14914 15.3716 5.71814 15.5736 5.26114 15.6156L1.09114 15.9946C1.06014 15.9976 1.03014 15.9986 1.00014 15.9986C0.736142 15.9986 0.481142 15.8936 0.293142 15.7056C0.0831417 15.4956 -0.0228583 15.2036 0.00414175 14.9076L0.383142 10.7376C0.425142 10.2806 0.627142 9.84858 0.952142 9.52358L6.53114 3.94358L5.29314 2.70558C4.90214 2.31458 4.90214 1.68158 5.29314 1.29158C5.68314 0.900577 6.31614 0.900577 6.70714 1.29158L7.94514 2.52958L9.94814 0.527577C10.6771 -0.200423 11.8951 -0.172423 12.6631 0.595577ZM7.94514 5.35758L2.36614 10.9376L7.85114 10.8496L10.6411 8.05358L7.94514 5.35758Z" transform="translate(2 2)" id="??-Icon-Ñolor" fill="#D0021B" fill-rule="evenodd" stroke="none" />
	</g>
	</symbol>

	<symbol width="24px" height="24px" viewBox="0 0 26 26" version="1.1" id="icon_back">
		<g id="icons/filter">
			<g id="Oval">
			<use stroke="none" fill="#FFFFFF"  />
			<g clip-path="url(#clip_1)">
				<use  fill="none" stroke="#D7D7D7" stroke-width="2" stroke-linecap="round" stroke-linejoin="round" />
			</g>
			</g>
			<path d="M4 0L0 5L4 10" transform="translate(9 7)" id="Path-3" fill="none" stroke="#D0021B" stroke-width="2" stroke-linecap="round" stroke-linejoin="round" />
		</g>
  	</symbol>
	</svg>
