<svg xmlns="http://www.w3.org/2000/svg" width="83" height="18" viewBox="0 0 83 18">
  <g fill="none" transform="translate(.24 .008)">
    <path fill="#D0021B" d="M7.10542736e-15,3.792 L7.10542736e-15,0.192 L13.92,0.192 L13.92,3.792 L8.88,3.792 L8.88,16.992 L5.04,16.992 L5.04,3.792 L7.10542736e-15,3.792 Z M14.352,12.072 L14.352,8.712 L20.688,8.712 L20.688,12.072 L14.352,12.072 Z M23.4,9.6 L24.552,0.192 L32.856,0.192 L32.856,3.792 L27.72,3.792 L27.384,5.928 L27.96,5.928 C29.4640075,5.928 30.715995,6.42399504 31.716,7.416 C32.716005,8.40800496 33.216,9.73599168 33.216,11.4 C33.216,13.2240091 32.6400058,14.6599948 31.488,15.708 C30.3359942,16.7560052 28.8720089,17.28 27.096,17.28 C26.1679954,17.28 25.2280048,17.076002 24.276,16.668 C23.3239952,16.259998 22.6080024,15.7120034 22.128,15.024 L24.144,12.264 C24.4800017,12.664002 24.9359971,12.9999986 25.512,13.272 C26.0880029,13.5440014 26.6479973,13.68 27.192,13.68 C27.8320032,13.68 28.355998,13.484002 28.764,13.092 C29.172002,12.699998 29.376,12.1920031 29.376,11.568 C29.376,10.8639965 29.1040027,10.2880022 28.56,9.84 C28.0159973,9.39199776 27.2560049,9.168 26.28,9.168 C24.9679934,9.168 24.008003,9.31199856 23.4,9.6 Z M34.896,8.592 C34.896,5.90398656 35.3879951,3.8000076 36.372,2.28 C37.3560049,0.7599924 38.7999905,4.4408921e-14 40.704,4.4408921e-14 C42.6080095,4.4408921e-14 44.0519951,0.7599924 45.036,2.28 C46.0200049,3.8000076 46.512,5.90398656 46.512,8.592 C46.512,11.2800134 46.0280048,13.3839924 45.06,14.904 C44.0919952,16.4240076 42.6560095,17.184 40.752,17.184 C38.8319904,17.184 37.376005,16.4200076 36.384,14.892 C35.391995,13.3639924 34.896,11.2640134 34.896,8.592 Z M38.736,8.592 C38.736,12.0800174 39.4079933,13.824 40.752,13.824 C41.4400034,13.824 41.9319985,13.4360039 42.228,12.66 C42.5240015,11.8839961 42.672,10.5280097 42.672,8.592 C42.672,6.65599032 42.5200015,5.30000388 42.216,4.524 C41.9119985,3.74799612 41.4080035,3.36 40.704,3.36 C40.0159966,3.36 39.5160016,3.759996 39.204,4.56 C38.8919984,5.360004 38.736,6.70399056 38.736,8.592 Z M48.672,8.16 C48.672,7.58399712 48.8959978,7.06400232 49.344,6.6 C49.7920022,6.13599768 50.3839963,5.904 51.12,5.904 C51.7600032,5.904 52.2959978,6.13599768 52.728,6.6 C53.1600022,7.06400232 53.376,7.58399712 53.376,8.16 C53.376,8.81600328 53.1640021,9.38799756 52.74,9.876 C52.3159979,10.3640024 51.7760033,10.608 51.12,10.608 C50.3839963,10.608 49.7920022,10.3680024 49.344,9.888 C48.8959978,9.4079976 48.672,8.83200336 48.672,8.16 Z M48.672,14.688 C48.672,14.1119971 48.8959978,13.5920023 49.344,13.128 C49.7920022,12.6639977 50.3839963,12.432 51.12,12.432 C51.7600032,12.432 52.2959978,12.6639977 52.728,13.128 C53.1600022,13.5920023 53.376,14.1119971 53.376,14.688 C53.376,15.3440033 53.1640021,15.9159976 52.74,16.404 C52.3159979,16.8920024 51.7760033,17.136 51.12,17.136 C50.3839963,17.136 49.7920022,16.8960024 49.344,16.416 C48.8959978,15.9359976 48.672,15.3600034 48.672,14.688 Z"/>
    <path fill="#4B505A" d="M60.816,16.992 L56.976,16.992 L56.976,0.192 C57.3280018,0.192 58.3359917,0.18400008 60,0.168 C61.6640083,0.15199992 62.5599994,0.144 62.688,0.144 C64.8640109,0.144 66.4439951,0.6239952 67.428,1.584 C68.4120049,2.5440048 68.904,3.85599168 68.904,5.52 C68.904,7.80801144 67.9600094,9.42399528 66.072,10.368 L70.968,16.992 L66.312,16.992 L62.232,11.112 L60.816,11.112 L60.816,16.992 Z M62.496,3.744 C62.4319997,3.744 61.8720053,3.75999984 60.816,3.792 L60.816,7.512 L62.208,7.512 C63.9520087,7.512 64.824,6.86400648 64.824,5.568 C64.824,4.35199392 64.0480078,3.744 62.496,3.744 Z M79.8,13.512 L80.784,16.056 C79.6959946,16.8720041 78.2960086,17.28 76.584,17.28 C74.8079911,17.28 73.3880053,16.7600052 72.324,15.72 C71.2599947,14.6799948 70.728,13.3040086 70.728,11.592 C70.728,9.97599192 71.2679946,8.62400544 72.348,7.536 C73.4280054,6.44799456 74.8399913,5.904 76.584,5.904 C78.0240072,5.904 79.2559949,6.37999524 80.28,7.332 C81.3040051,8.28400476 81.816,9.50399256 81.816,10.992 C81.816,11.7120036 81.7440007,12.3119976 81.6,12.792 L74.448,12.792 C74.7680016,13.784005 75.6079932,14.28 76.968,14.28 C78.0400054,14.28 78.9839959,14.0240026 79.8,13.512 Z M76.464,8.904 C75.3919946,8.904 74.6800018,9.39999504 74.328,10.392 L78.216,10.392 C78.216,9.991998 78.0600016,9.64400148 77.748,9.348 C77.4359984,9.05199852 77.0080027,8.904 76.464,8.904 Z"/>
  </g>
</svg>
